G04 ================== begin FILE IDENTIFICATION RECORD ==================*
G04 Layout Name:  C:/Users/user/Desktop/workspace/ex2/allegro/ex2_rlc.brd*
G04 Film Name:    drulldraw*
G04 File Format:  Gerber RS274X*
G04 File Origin:  Cadence Allegro 17.2-S038*
G04 Origin Date:  Thu Jul 11 11:34:27 2019*
G04 *
G04 Layer:  MANUFACTURING/NCLEGEND-1-2*
G04 Layer:  BOARD GEOMETRY/DESIGN_OUTLINE*
G04 *
G04 Offset:    (0.000 0.000)*
G04 Mirror:    No*
G04 Mode:      Positive*
G04 Rotation:  0*
G04 FullContactRelief:  No*
G04 UndefLineWidth:     0.100*
G04 ================== end FILE IDENTIFICATION RECORD ====================*
%FSLAX25Y25*MOMM*%
%IR0*IPPOS*OFA0.00000B0.00000*MIA0B0*SFA1.00000B1.00000*%
%AMMACRO12*
1,1,.1,-.508,.3175*
20,1,.1,-.508,.3175,-.500282,.405713,0.0*
1,1,.1,-.500282,.405713*
20,1,.1,-.500282,.405713,-.477364,.491246,0.0*
1,1,.1,-.477364,.491246*
20,1,.1,-.477364,.491246,-.439941,.5715,0.0*
1,1,.1,-.439941,.5715*
20,1,.1,-.439941,.5715,-.389151,.644036,0.0*
1,1,.1,-.389151,.644036*
20,1,.1,-.389151,.644036,-.326536,.706651,0.0*
1,1,.1,-.326536,.706651*
20,1,.1,-.326536,.706651,-.254,.757441,0.0*
1,1,.1,-.254,.757441*
20,1,.1,-.254,.757441,-.173746,.794864,0.0*
1,1,.1,-.173746,.794864*
20,1,.1,-.173746,.794864,-.088213,.817782,0.0*
1,1,.1,-.088213,.817782*
20,1,.1,-.088213,.817782,0.0,.8255,0.0*
1,1,.1,0.0,.8255*
20,1,.1,0.0,.8255,.088213,.817782,0.0*
1,1,.1,.088213,.817782*
20,1,.1,.088213,.817782,.173746,.794864,0.0*
1,1,.1,.173746,.794864*
20,1,.1,.173746,.794864,.254,.757441,0.0*
1,1,.1,.254,.757441*
20,1,.1,.254,.757441,.326536,.706651,0.0*
1,1,.1,.326536,.706651*
20,1,.1,.326536,.706651,.389151,.644036,0.0*
1,1,.1,.389151,.644036*
20,1,.1,.389151,.644036,.439941,.5715,0.0*
1,1,.1,.439941,.5715*
20,1,.1,.439941,.5715,.477364,.491246,0.0*
1,1,.1,.477364,.491246*
20,1,.1,.477364,.491246,.500282,.405713,0.0*
1,1,.1,.500282,.405713*
20,1,.1,.500282,.405713,.508,.3175,0.0*
1,1,.1,.508,.3175*
20,1,.1,.508,.3175,.508,-.3175,0.0*
1,1,.1,.508,-.3175*
20,1,.1,.508,-.3175,.500282,-.405713,0.0*
1,1,.1,.500282,-.405713*
20,1,.1,.500282,-.405713,.477364,-.491246,0.0*
1,1,.1,.477364,-.491246*
20,1,.1,.477364,-.491246,.439941,-.5715,0.0*
1,1,.1,.439941,-.5715*
20,1,.1,.439941,-.5715,.389151,-.644036,0.0*
1,1,.1,.389151,-.644036*
20,1,.1,.389151,-.644036,.326536,-.706651,0.0*
1,1,.1,.326536,-.706651*
20,1,.1,.326536,-.706651,.254,-.757441,0.0*
1,1,.1,.254,-.757441*
20,1,.1,.254,-.757441,.173746,-.794864,0.0*
1,1,.1,.173746,-.794864*
20,1,.1,.173746,-.794864,.088213,-.817782,0.0*
1,1,.1,.088213,-.817782*
20,1,.1,.088213,-.817782,0.0,-.8255,0.0*
1,1,.1,0.0,-.8255*
20,1,.1,0.0,-.8255,-.088213,-.817782,0.0*
1,1,.1,-.088213,-.817782*
20,1,.1,-.088213,-.817782,-.173746,-.794864,0.0*
1,1,.1,-.173746,-.794864*
20,1,.1,-.173746,-.794864,-.254,-.757441,0.0*
1,1,.1,-.254,-.757441*
20,1,.1,-.254,-.757441,-.326536,-.706651,0.0*
1,1,.1,-.326536,-.706651*
20,1,.1,-.326536,-.706651,-.389151,-.644036,0.0*
1,1,.1,-.389151,-.644036*
20,1,.1,-.389151,-.644036,-.439941,-.5715,0.0*
1,1,.1,-.439941,-.5715*
20,1,.1,-.439941,-.5715,-.477364,-.491246,0.0*
1,1,.1,-.477364,-.491246*
20,1,.1,-.477364,-.491246,-.500282,-.405713,0.0*
1,1,.1,-.500282,-.405713*
20,1,.1,-.500282,-.405713,-.508,-.3175,0.0*
1,1,.1,-.508,-.3175*
20,1,.1,-.508,-.3175,-.508,.3175,0.0*
1,1,.1,-.508,.3175*
%
%ADD12MACRO12*%
%AMMACRO11*
1,1,.1,.635,0.0*
20,1,.1,.635,0.0,.3175,.549926,0.0*
1,1,.1,.3175,.549926*
20,1,.1,.3175,.549926,-.3175,.549926,0.0*
1,1,.1,-.3175,.549926*
20,1,.1,-.3175,.549926,-.635,0.0,0.0*
1,1,.1,-.635,0.0*
20,1,.1,-.635,0.0,-.3175,-.549926,0.0*
1,1,.1,-.3175,-.549926*
20,1,.1,-.3175,-.549926,.3175,-.549926,0.0*
1,1,.1,.3175,-.549926*
20,1,.1,.3175,-.549926,.635,0.0,0.0*
1,1,.1,.635,0.0*
%
%ADD11MACRO11*%
%AMMACRO10*
1,1,.1,-.666,-.952*
20,1,.1,-.666,-.952,.667,.953,0.0*
1,1,.1,.667,.953*
1,1,.1,-.666,.953*
20,1,.1,-.666,.953,.667,-.952,0.0*
1,1,.1,.667,-.952*
%
%ADD10MACRO10*%
%ADD13C,.1*%
G75*
%LPD*%
G75*
G54D10*
X571500Y571500D03*
Y4381500D03*
X6413500Y571500D03*
Y4381500D03*
X8507500Y302500D03*
G54D11*
X889000Y1905000D03*
Y2159000D03*
X4191000Y2667000D03*
Y2921000D03*
X8507500Y1572500D03*
G54D12*
X889000Y2921000D03*
X1905000D03*
X3048000Y1905000D03*
Y2921000D03*
X8507500Y937500D03*
G54D13*
G01X0Y0D02*
Y5000000D01*
X7000000D01*
Y0D01*
X0D01*
G01X7366000Y-15000D02*
Y3810000D01*
X19961900D01*
Y-15000D01*
X7366000D01*
G01Y620000D02*
X19961900D01*
G01X7366000Y1255000D02*
X19961900D01*
G01X7645400Y2048800D02*
Y2366300D01*
X7795000D01*
G01X7739900Y2212800D02*
X7645400D01*
G01X7987900Y2366300D02*
X8082300D01*
G01X8035100D02*
Y2048800D01*
G01X7987900D02*
X8082300D01*
G01X8373600Y2207500D02*
X8452400D01*
Y2112300D01*
X8428700Y2080500D01*
X8401200Y2059400D01*
X8361800Y2048800D01*
X8322400Y2059400D01*
X8294900Y2080500D01*
X8271300Y2112300D01*
X8255500Y2149300D01*
X8247600Y2191700D01*
Y2228700D01*
X8255500Y2260500D01*
X8271300Y2297500D01*
X8294900Y2329300D01*
X8318500Y2350400D01*
X8350000Y2366300D01*
X8377600D01*
X8409000Y2355700D01*
X8432700Y2334500D01*
G01X8578300Y2366300D02*
Y2138800D01*
X8594000Y2091100D01*
X8625500Y2059400D01*
X8664900Y2048800D01*
X8704300Y2059400D01*
X8735800Y2091100D01*
X8751500Y2138800D01*
Y2366300D01*
G01X8901100Y2048800D02*
Y2366300D01*
X8999500D01*
X9031000Y2350400D01*
X9050700Y2329300D01*
X9058500Y2286900D01*
X9050700Y2244600D01*
X9027000Y2218100D01*
X8999500Y2202300D01*
X8901100D01*
G01X8999500D02*
X9058500Y2048800D01*
G01X9373400D02*
X9216000D01*
Y2366300D01*
X9373400D01*
G01X9310400Y2212800D02*
X9216000D01*
G01X7366000Y2525000D02*
X19961900D01*
G01X7366000Y1890000D02*
X19961900D01*
G01X7366000Y3160000D02*
X19961900D01*
G01X9314400Y2683800D02*
X9412800Y3001300D01*
X9511200Y2683800D01*
G01X9475800Y2794900D02*
X9349800D01*
G01X9649000Y3001300D02*
Y2683800D01*
X9806400D01*
G01X9963900Y3001300D02*
Y2683800D01*
X10121300D01*
G01X10585800Y3001300D02*
Y2773800D01*
X10601500Y2726100D01*
X10633000Y2694400D01*
X10672400Y2683800D01*
X10711800Y2694400D01*
X10743300Y2726100D01*
X10759000Y2773800D01*
Y3001300D01*
G01X10896800Y2683800D02*
Y3001300D01*
X11077800Y2683800D01*
Y3001300D01*
G01X11255000D02*
X11349400D01*
G01X11302200D02*
Y2683800D01*
G01X11255000D02*
X11349400D01*
G01X11617100Y3001300D02*
Y2683800D01*
G01X11526600Y3001300D02*
X11707600D01*
G01X11849300Y2726100D02*
X11880800Y2699700D01*
X11916300Y2683800D01*
X11947700D01*
X11979200Y2699700D01*
X12002900Y2726100D01*
X12014700Y2763200D01*
X12006800Y2800200D01*
X11987100Y2832000D01*
X11951700Y2853100D01*
X11904400Y2863700D01*
X11876900Y2884900D01*
X11865100Y2921900D01*
X11873000Y2959000D01*
X11892600Y2985400D01*
X11920200Y3001300D01*
X11947700D01*
X11975300Y2990700D01*
X11998900Y2964300D01*
G01X12463400Y2683800D02*
X12561800Y3001300D01*
X12660200Y2683800D01*
G01X12624800Y2794900D02*
X12498800D01*
G01X12798000Y2683800D02*
Y3001300D01*
X12896400D01*
X12927900Y2985400D01*
X12947600Y2964300D01*
X12955400Y2921900D01*
X12947600Y2879600D01*
X12923900Y2853100D01*
X12896400Y2837300D01*
X12798000D01*
G01X12896400D02*
X12955400Y2683800D01*
G01X13270300D02*
X13112900D01*
Y3001300D01*
X13270300D01*
G01X13207300Y2847800D02*
X13112900D01*
G01X13774200Y3001300D02*
X13868600D01*
G01X13821400D02*
Y2683800D01*
G01X13774200D02*
X13868600D01*
G01X14045800D02*
Y3001300D01*
X14226800Y2683800D01*
Y3001300D01*
G01X14663700Y2683800D02*
Y3001300D01*
X14766100Y2736700D01*
X14868500Y3001300D01*
Y2683800D01*
G01X15033800Y3001300D02*
X15128200D01*
G01X15081000D02*
Y2683800D01*
G01X15033800D02*
X15128200D01*
G01X15317200Y3001300D02*
Y2683800D01*
X15474600D01*
G01X15632100Y3001300D02*
Y2683800D01*
X15789500D01*
G01X15978500Y3001300D02*
X16072900D01*
G01X16025700D02*
Y2683800D01*
G01X15978500D02*
X16072900D01*
G01X16238200D02*
Y3001300D01*
X16340600Y2736700D01*
X16443000Y3001300D01*
Y2683800D01*
G01X16734200D02*
X16576800D01*
Y3001300D01*
X16734200D01*
G01X16671200Y2847800D02*
X16576800D01*
G01X16970400Y3001300D02*
Y2683800D01*
G01X16879900Y3001300D02*
X17060900D01*
G01X17364000Y2683800D02*
X17206600D01*
Y3001300D01*
X17364000D01*
G01X17301000Y2847800D02*
X17206600D01*
G01X17521500Y2683800D02*
Y3001300D01*
X17619900D01*
X17651400Y2985400D01*
X17671100Y2964300D01*
X17678900Y2921900D01*
X17671100Y2879600D01*
X17647400Y2853100D01*
X17619900Y2837300D01*
X17521500D01*
G01X17619900D02*
X17678900Y2683800D01*
G01X17832400Y2726100D02*
X17863900Y2699700D01*
X17899400Y2683800D01*
X17930800D01*
X17962300Y2699700D01*
X17986000Y2726100D01*
X17997800Y2763200D01*
X17989900Y2800200D01*
X17970200Y2832000D01*
X17934800Y2853100D01*
X17887500Y2863700D01*
X17860000Y2884900D01*
X17848200Y2921900D01*
X17856100Y2959000D01*
X17875700Y2985400D01*
X17903300Y3001300D01*
X17930800D01*
X17958400Y2990700D01*
X17982000Y2964300D01*
G01X9649000Y2525000D02*
Y-15000D01*
G01X10243300Y2048800D02*
Y2366300D01*
X10392900D01*
G01X10337800Y2212800D02*
X10243300D01*
G01X10585800Y2366300D02*
X10680200D01*
G01X10633000D02*
Y2048800D01*
G01X10585800D02*
X10680200D01*
G01X10857400D02*
Y2366300D01*
X11038400Y2048800D01*
Y2366300D01*
G01X11215600D02*
X11310000D01*
G01X11262800D02*
Y2048800D01*
G01X11215600D02*
X11310000D01*
G01X11495000Y2091100D02*
X11526500Y2064700D01*
X11562000Y2048800D01*
X11593400D01*
X11624900Y2064700D01*
X11648600Y2091100D01*
X11660400Y2128200D01*
X11652500Y2165200D01*
X11632800Y2197000D01*
X11597400Y2218100D01*
X11550100Y2228700D01*
X11522600Y2249900D01*
X11510800Y2286900D01*
X11518700Y2324000D01*
X11538300Y2350400D01*
X11565900Y2366300D01*
X11593400D01*
X11621000Y2355700D01*
X11644600Y2329300D01*
G01X11809900Y2048800D02*
Y2366300D01*
G01X11975300D02*
Y2048800D01*
G01Y2207500D02*
X11809900D01*
G01X12286200Y2048800D02*
X12128800D01*
Y2366300D01*
X12286200D01*
G01X12223200Y2212800D02*
X12128800D01*
G01X12435800Y2048800D02*
Y2366300D01*
X12514500D01*
X12546000Y2350400D01*
X12569600Y2329300D01*
X12589300Y2297500D01*
X12605100Y2260500D01*
X12609000Y2207500D01*
X12605100Y2154600D01*
X12589300Y2117600D01*
X12569600Y2085800D01*
X12546000Y2064700D01*
X12514500Y2048800D01*
X12435800D01*
G01X12719200Y1943000D02*
X12955400D01*
G01X13069500Y2091100D02*
X13101000Y2064700D01*
X13136500Y2048800D01*
X13167900D01*
X13199400Y2064700D01*
X13223100Y2091100D01*
X13234900Y2128200D01*
X13227000Y2165200D01*
X13207300Y2197000D01*
X13171900Y2218100D01*
X13124600Y2228700D01*
X13097100Y2249900D01*
X13085300Y2286900D01*
X13093200Y2324000D01*
X13112800Y2350400D01*
X13140400Y2366300D01*
X13167900D01*
X13195500Y2355700D01*
X13219100Y2329300D01*
G01X13419900Y2366300D02*
X13514300D01*
G01X13467100D02*
Y2048800D01*
G01X13419900D02*
X13514300D01*
G01X13707200Y2366300D02*
X13856800D01*
X13707200Y2048800D01*
X13856800D01*
G01X14175600D02*
X14018200D01*
Y2366300D01*
X14175600D01*
G01X14112600Y2212800D02*
X14018200D01*
G01X9641100Y3333800D02*
Y3651300D01*
X9719800D01*
X9751300Y3635400D01*
X9774900Y3614300D01*
X9794600Y3582500D01*
X9810400Y3545500D01*
X9814300Y3492500D01*
X9810400Y3439600D01*
X9794600Y3402600D01*
X9774900Y3370800D01*
X9751300Y3349700D01*
X9719800Y3333800D01*
X9641100D01*
G01X9963900D02*
Y3651300D01*
X10062300D01*
X10093800Y3635400D01*
X10113500Y3614300D01*
X10121300Y3571900D01*
X10113500Y3529600D01*
X10089800Y3503100D01*
X10062300Y3487300D01*
X9963900D01*
G01X10062300D02*
X10121300Y3333800D01*
G01X10310300Y3651300D02*
X10404700D01*
G01X10357500D02*
Y3333800D01*
G01X10310300D02*
X10404700D01*
G01X10593700Y3651300D02*
Y3333800D01*
X10751100D01*
G01X10908600Y3651300D02*
Y3333800D01*
X11066000D01*
G01X11703700Y3624800D02*
X11680100Y3640700D01*
X11652500Y3651300D01*
X11621000D01*
X11585600Y3635400D01*
X11558100Y3609000D01*
X11538400Y3577200D01*
X11522600Y3524300D01*
X11518700Y3476700D01*
X11526600Y3429000D01*
X11538400Y3397300D01*
X11562000Y3365500D01*
X11589500Y3344400D01*
X11617100Y3333800D01*
X11644700D01*
X11672200Y3344400D01*
X11695800Y3360300D01*
X11715500Y3381400D01*
G01X11849300Y3333800D02*
Y3651300D01*
G01X12014700D02*
Y3333800D01*
G01Y3492500D02*
X11849300D01*
G01X12148500Y3333800D02*
X12246900Y3651300D01*
X12345300Y3333800D01*
G01X12309900Y3444900D02*
X12183900D01*
G01X12483100Y3333800D02*
Y3651300D01*
X12581500D01*
X12613000Y3635400D01*
X12632700Y3614300D01*
X12640500Y3571900D01*
X12632700Y3529600D01*
X12609000Y3503100D01*
X12581500Y3487300D01*
X12483100D01*
G01X12581500D02*
X12640500Y3333800D01*
G01X12876700Y3651300D02*
Y3333800D01*
G01X12786200Y3651300D02*
X12967200D01*
G01X13191600Y3323200D02*
X13183700Y3328500D01*
Y3339100D01*
X13191600Y3344400D01*
X13199500Y3339100D01*
Y3328500D01*
X13191600Y3323200D01*
G01Y3466100D02*
X13183700Y3471400D01*
Y3482000D01*
X13191600Y3487300D01*
X13199500Y3482000D01*
Y3471400D01*
X13191600Y3466100D01*
G01X13821400Y3651300D02*
Y3333800D01*
G01X13730900Y3651300D02*
X13911900D01*
G01X14136300Y3333800D02*
X14104800Y3339100D01*
X14077300Y3360300D01*
X14053600Y3392000D01*
X14037900Y3429000D01*
X14030000Y3471400D01*
Y3513700D01*
X14037900Y3556100D01*
X14053600Y3593100D01*
X14077300Y3624800D01*
X14104800Y3646000D01*
X14136300Y3651300D01*
X14167800Y3646000D01*
X14195300Y3624800D01*
X14219000Y3593100D01*
X14234700Y3556100D01*
X14242600Y3513700D01*
Y3471400D01*
X14234700Y3429000D01*
X14219000Y3392000D01*
X14195300Y3360300D01*
X14167800Y3339100D01*
X14136300Y3333800D01*
G01X14372500D02*
Y3651300D01*
X14466900D01*
X14498400Y3635400D01*
X14522100Y3598400D01*
X14529900Y3556100D01*
X14522100Y3513700D01*
X14502400Y3482000D01*
X14466900Y3466100D01*
X14372500D01*
G01X15081000Y3651300D02*
Y3333800D01*
G01X15025900Y3545500D02*
X15136100D01*
G01X15395900Y3333800D02*
X15372300Y3339100D01*
X15348700Y3360300D01*
X15332900Y3397300D01*
X15325000Y3439600D01*
X15332900Y3482000D01*
X15348700Y3519000D01*
X15372300Y3540200D01*
X15395900Y3545500D01*
X15419500Y3540200D01*
X15443100Y3519000D01*
X15458900Y3482000D01*
X15462800Y3439600D01*
X15458900Y3397300D01*
X15443100Y3360300D01*
X15419500Y3339100D01*
X15395900Y3333800D01*
G01X16057200Y3503100D02*
X16072900Y3519000D01*
X16084700Y3545500D01*
X16092600Y3582500D01*
X16084700Y3614300D01*
X16069000Y3635400D01*
X16041400Y3651300D01*
X15935200D01*
Y3333800D01*
X16065100D01*
X16092600Y3355000D01*
X16108400Y3386700D01*
X16116200Y3423800D01*
X16108400Y3460800D01*
X16084700Y3492500D01*
X16057200Y3503100D01*
X15935200D01*
G01X16340600Y3333800D02*
X16309100Y3339100D01*
X16281600Y3360300D01*
X16257900Y3392000D01*
X16242200Y3429000D01*
X16234300Y3471400D01*
Y3513700D01*
X16242200Y3556100D01*
X16257900Y3593100D01*
X16281600Y3624800D01*
X16309100Y3646000D01*
X16340600Y3651300D01*
X16372100Y3646000D01*
X16399600Y3624800D01*
X16423300Y3593100D01*
X16439000Y3556100D01*
X16446900Y3513700D01*
Y3471400D01*
X16439000Y3429000D01*
X16423300Y3392000D01*
X16399600Y3360300D01*
X16372100Y3339100D01*
X16340600Y3333800D01*
G01X16655500Y3651300D02*
Y3333800D01*
G01X16565000Y3651300D02*
X16746000D01*
G01X16970400D02*
Y3333800D01*
G01X16879900Y3651300D02*
X17060900D01*
G01X17285300Y3333800D02*
X17253800Y3339100D01*
X17226300Y3360300D01*
X17202600Y3392000D01*
X17186900Y3429000D01*
X17179000Y3471400D01*
Y3513700D01*
X17186900Y3556100D01*
X17202600Y3593100D01*
X17226300Y3624800D01*
X17253800Y3646000D01*
X17285300Y3651300D01*
X17316800Y3646000D01*
X17344300Y3624800D01*
X17368000Y3593100D01*
X17383700Y3556100D01*
X17391600Y3513700D01*
Y3471400D01*
X17383700Y3429000D01*
X17368000Y3392000D01*
X17344300Y3360300D01*
X17316800Y3339100D01*
X17285300Y3333800D01*
G01X17497800D02*
Y3651300D01*
X17600200Y3386700D01*
X17702600Y3651300D01*
Y3333800D01*
G01X11491100Y207200D02*
X11514700Y170200D01*
X11546200Y149000D01*
X11581600Y143700D01*
X11613100Y149000D01*
X11644600Y175400D01*
X11664300Y207200D01*
X11668200Y238900D01*
X11660400Y276000D01*
X11632800Y302400D01*
X11605300Y313000D01*
X11569800D01*
G01X11605300D02*
X11628900Y328900D01*
X11648600Y355400D01*
X11656400Y387100D01*
X11648600Y418900D01*
X11628900Y445300D01*
X11593400Y461200D01*
X11558000Y455900D01*
X11522600Y434700D01*
G01X11892600Y133100D02*
X11884700Y138400D01*
Y149000D01*
X11892600Y154300D01*
X11900500Y149000D01*
Y138400D01*
X11892600Y133100D01*
G01X12207500Y143700D02*
Y461200D01*
X12160300Y397700D01*
G01Y143700D02*
X12254700D01*
G01X12514500D02*
X12522400Y212500D01*
X12534200Y270700D01*
X12550000Y323600D01*
X12569600Y381800D01*
X12601100Y461200D01*
X12443700D01*
G01X12750700Y191300D02*
X12774300Y164900D01*
X12801900Y149000D01*
X12837300Y143700D01*
X12872700Y154300D01*
X12900300Y175400D01*
X12920000Y212500D01*
X12923900Y254800D01*
X12916000Y297200D01*
X12896300Y323600D01*
X12868800Y344800D01*
X12841200Y350100D01*
X12813700Y344800D01*
X12778300Y323600D01*
X12790100Y461200D01*
X12896300D01*
G01X11577700Y778800D02*
Y1096300D01*
X11530500Y1032800D01*
G01Y778800D02*
X11624900D01*
G01X11892600Y768200D02*
X11884700Y773500D01*
Y784100D01*
X11892600Y789400D01*
X11900500Y784100D01*
Y773500D01*
X11892600Y768200D01*
G01X12207500Y1096300D02*
X12176000Y1085700D01*
X12152400Y1059300D01*
X12136600Y1027500D01*
X12124800Y985200D01*
X12120900Y937500D01*
X12124800Y889900D01*
X12136600Y847600D01*
X12152400Y815800D01*
X12176000Y789400D01*
X12207500Y778800D01*
X12239000Y789400D01*
X12262600Y815800D01*
X12278400Y847600D01*
X12290200Y889900D01*
X12294100Y937500D01*
X12290200Y985200D01*
X12278400Y1027500D01*
X12262600Y1059300D01*
X12239000Y1085700D01*
X12207500Y1096300D01*
G01X12447600Y911100D02*
X12475200Y948100D01*
X12498800Y969300D01*
X12530300Y979900D01*
X12557800Y969300D01*
X12577500Y948100D01*
X12593300Y916400D01*
X12597200Y879300D01*
X12593300Y847600D01*
X12577500Y815800D01*
X12553900Y789400D01*
X12526300Y778800D01*
X12494800Y789400D01*
X12467300Y821100D01*
X12451500Y868800D01*
X12447600Y921700D01*
X12455500Y990500D01*
X12467300Y1027500D01*
X12487000Y1064500D01*
X12514500Y1091000D01*
X12542100Y1096300D01*
X12569600Y1085700D01*
X12589300Y1059300D01*
G01X12829400Y778800D02*
X12837300Y847600D01*
X12849100Y905800D01*
X12864900Y958700D01*
X12884500Y1016900D01*
X12916000Y1096300D01*
X12758600D01*
G01X11577700Y1731200D02*
X11546200Y1720600D01*
X11522600Y1694200D01*
X11506800Y1662400D01*
X11495000Y1620100D01*
X11491100Y1572400D01*
X11495000Y1524800D01*
X11506800Y1482500D01*
X11522600Y1450700D01*
X11546200Y1424300D01*
X11577700Y1413700D01*
X11609200Y1424300D01*
X11632800Y1450700D01*
X11648600Y1482500D01*
X11660400Y1524800D01*
X11664300Y1572400D01*
X11660400Y1620100D01*
X11648600Y1662400D01*
X11632800Y1694200D01*
X11609200Y1720600D01*
X11577700Y1731200D01*
G01X11892600Y1403100D02*
X11884700Y1408400D01*
Y1419000D01*
X11892600Y1424300D01*
X11900500Y1419000D01*
Y1408400D01*
X11892600Y1403100D01*
G01X12140600Y1450700D02*
X12168100Y1424300D01*
X12199600Y1413700D01*
X12231100Y1424300D01*
X12258700Y1456000D01*
X12278400Y1503700D01*
X12286200Y1551300D01*
Y1609500D01*
X12278400Y1657100D01*
X12258700Y1699400D01*
X12235100Y1720600D01*
X12207500Y1731200D01*
X12176000Y1720600D01*
X12152400Y1699400D01*
X12136600Y1667700D01*
X12128800Y1625400D01*
X12136600Y1588300D01*
X12156300Y1551300D01*
X12179900Y1530100D01*
X12207500Y1524800D01*
X12239000Y1535400D01*
X12262600Y1561900D01*
X12286200Y1609500D01*
G01X12522400Y1413700D02*
Y1731200D01*
X12475200Y1667700D01*
G01Y1413700D02*
X12569600D01*
G01X12884500D02*
Y1731200D01*
X12738900Y1503700D01*
X12935700D01*
G01X14766100Y2525000D02*
Y-15000D01*
G01X14872400Y143700D02*
Y461200D01*
X15053400Y143700D01*
Y461200D01*
G01X15277800Y143700D02*
X15246300Y149000D01*
X15218800Y170200D01*
X15195100Y201900D01*
X15179400Y238900D01*
X15171500Y281300D01*
Y323600D01*
X15179400Y366000D01*
X15195100Y403000D01*
X15218800Y434700D01*
X15246300Y455900D01*
X15277800Y461200D01*
X15309300Y455900D01*
X15336800Y434700D01*
X15360500Y403000D01*
X15376200Y366000D01*
X15384100Y323600D01*
Y281300D01*
X15376200Y238900D01*
X15360500Y201900D01*
X15336800Y170200D01*
X15309300Y149000D01*
X15277800Y143700D01*
G01X15502200D02*
Y461200D01*
X15683200Y143700D01*
Y461200D01*
G01X15856400Y249500D02*
X15958800D01*
G01X16143800Y143700D02*
Y461200D01*
X16238200D01*
X16269700Y445300D01*
X16293400Y408300D01*
X16301200Y366000D01*
X16293400Y323600D01*
X16273700Y291900D01*
X16238200Y276000D01*
X16143800D01*
G01X16458700Y461200D02*
Y143700D01*
X16616100D01*
G01X16753900D02*
X16852300Y461200D01*
X16950700Y143700D01*
G01X16915300Y254800D02*
X16789300D01*
G01X17167200Y461200D02*
Y143700D01*
G01X17076700Y461200D02*
X17257700D01*
G01X17560800Y143700D02*
X17403400D01*
Y461200D01*
X17560800D01*
G01X17497800Y307700D02*
X17403400D01*
G01X17710400Y143700D02*
Y461200D01*
X17789100D01*
X17820600Y445300D01*
X17844200Y424200D01*
X17863900Y392400D01*
X17879700Y355400D01*
X17883600Y302400D01*
X17879700Y249500D01*
X17863900Y212500D01*
X17844200Y180700D01*
X17820600Y159600D01*
X17789100Y143700D01*
X17710400D01*
G01X15514000Y778800D02*
Y1096300D01*
X15608400D01*
X15639900Y1080400D01*
X15663600Y1043400D01*
X15671400Y1001100D01*
X15663600Y958700D01*
X15643900Y927000D01*
X15608400Y911100D01*
X15514000D01*
G01X15828900Y1096300D02*
Y778800D01*
X15986300D01*
G01X16124100D02*
X16222500Y1096300D01*
X16320900Y778800D01*
G01X16285500Y889900D02*
X16159500D01*
G01X16537400Y1096300D02*
Y778800D01*
G01X16446900Y1096300D02*
X16627900D01*
G01X16931000Y778800D02*
X16773600D01*
Y1096300D01*
X16931000D01*
G01X16868000Y942800D02*
X16773600D01*
G01X17080600Y778800D02*
Y1096300D01*
X17159300D01*
X17190800Y1080400D01*
X17214400Y1059300D01*
X17234100Y1027500D01*
X17249900Y990500D01*
X17253800Y937500D01*
X17249900Y884600D01*
X17234100Y847600D01*
X17214400Y815800D01*
X17190800Y794700D01*
X17159300Y778800D01*
X17080600D01*
G01X15514000Y1413700D02*
Y1731200D01*
X15608400D01*
X15639900Y1715300D01*
X15663600Y1678300D01*
X15671400Y1636000D01*
X15663600Y1593600D01*
X15643900Y1561900D01*
X15608400Y1546000D01*
X15514000D01*
G01X15828900Y1731200D02*
Y1413700D01*
X15986300D01*
G01X16124100D02*
X16222500Y1731200D01*
X16320900Y1413700D01*
G01X16285500Y1524800D02*
X16159500D01*
G01X16537400Y1731200D02*
Y1413700D01*
G01X16446900Y1731200D02*
X16627900D01*
G01X16931000Y1413700D02*
X16773600D01*
Y1731200D01*
X16931000D01*
G01X16868000Y1577700D02*
X16773600D01*
G01X17080600Y1413700D02*
Y1731200D01*
X17159300D01*
X17190800Y1715300D01*
X17214400Y1694200D01*
X17234100Y1662400D01*
X17249900Y1625400D01*
X17253800Y1572400D01*
X17249900Y1519500D01*
X17234100Y1482500D01*
X17214400Y1450700D01*
X17190800Y1429600D01*
X17159300Y1413700D01*
X17080600D01*
G01X15514000Y2048800D02*
Y2366300D01*
X15608400D01*
X15639900Y2350400D01*
X15663600Y2313400D01*
X15671400Y2271100D01*
X15663600Y2228700D01*
X15643900Y2197000D01*
X15608400Y2181100D01*
X15514000D01*
G01X15828900Y2366300D02*
Y2048800D01*
X15986300D01*
G01X16124100D02*
X16222500Y2366300D01*
X16320900Y2048800D01*
G01X16285500Y2159900D02*
X16159500D01*
G01X16537400Y2366300D02*
Y2048800D01*
G01X16446900Y2366300D02*
X16627900D01*
G01X16931000Y2048800D02*
X16773600D01*
Y2366300D01*
X16931000D01*
G01X16868000Y2212800D02*
X16773600D01*
G01X17080600Y2048800D02*
Y2366300D01*
X17159300D01*
X17190800Y2350400D01*
X17214400Y2329300D01*
X17234100Y2297500D01*
X17249900Y2260500D01*
X17253800Y2207500D01*
X17249900Y2154600D01*
X17234100Y2117600D01*
X17214400Y2085800D01*
X17190800Y2064700D01*
X17159300Y2048800D01*
X17080600D01*
G01X17993800Y2525000D02*
Y-15000D01*
G01X18662900Y2048800D02*
X18631400Y2054100D01*
X18603900Y2075300D01*
X18580200Y2107000D01*
X18564500Y2144000D01*
X18556600Y2186400D01*
Y2228700D01*
X18564500Y2271100D01*
X18580200Y2308100D01*
X18603900Y2339800D01*
X18631400Y2361000D01*
X18662900Y2366300D01*
X18694400Y2361000D01*
X18721900Y2339800D01*
X18745600Y2308100D01*
X18761300Y2271100D01*
X18769200Y2228700D01*
Y2186400D01*
X18761300Y2144000D01*
X18745600Y2107000D01*
X18721900Y2075300D01*
X18694400Y2054100D01*
X18662900Y2048800D01*
G01X18694400Y2133500D02*
X18741600Y2048800D01*
G01X18977800Y2366300D02*
Y2048800D01*
G01X18887300Y2366300D02*
X19068300D01*
G01X19292700Y2048800D02*
Y2191700D01*
X19214000Y2366300D01*
G01X19371400D02*
X19292700Y2191700D01*
G01X19025000Y143700D02*
Y461200D01*
X18879400Y233700D01*
X19076200D01*
G01X19025000Y778800D02*
Y1096300D01*
X18879400Y868800D01*
X19076200D01*
G01X19025000Y1413700D02*
Y1731200D01*
X18879400Y1503700D01*
X19076200D01*
M02*
