G04 ================== begin FILE IDENTIFICATION RECORD ==================*
G04 Layout Name:  C:/Users/user/Desktop/workspace/ex2/allegro/ex2_rlc.brd*
G04 Film Name:    TOP*
G04 File Format:  Gerber RS274X*
G04 File Origin:  Cadence Allegro 17.2-S038*
G04 Origin Date:  Thu Jul 11 12:16:55 2019*
G04 *
G04 Layer:  ETCH/TOP*
G04 Layer:  PIN/TOP*
G04 Layer:  VIA CLASS/TOP*
G04 *
G04 Offset:    (0.000 0.000)*
G04 Mirror:    No*
G04 Mode:      Positive*
G04 Rotation:  0*
G04 FullContactRelief:  No*
G04 UndefLineWidth:     0.000*
G04 ================== end FILE IDENTIFICATION RECORD ====================*
%FSLAX25Y25*MOMM*%
%IR0*IPPOS*OFA0.00000B0.00000*MIA0B0*SFA1.00000B1.00000*%
%ADD11C,1.524*%
%ADD12C,1.651*%
%ADD13R,1.27X1.6*%
%ADD10C,.635*%
%ADD14C,.3*%
%ADD15C,.254*%
%ADD18C,1.782*%
%ADD17R,2.671X4.83*%
%ADD16R,5.084X5.084*%
G75*
%LPD*%
G75*
G36*
G01X6692900Y4699000D02*
Y300100D01*
X300100D01*
Y4699000D01*
X6692900D01*
G37*
%LPC*%
G75*
G36*
G01X843000Y2507500D02*
Y2817100D01*
G02X935000I46000J103900D01*
G01Y2507500D01*
X1371700D01*
X1453400Y2425800D01*
Y1951000D01*
X2944100D01*
G02X3151900I103900J-46000D01*
G01X4141900D01*
X4145000Y1954100D01*
Y2570200D01*
G02X4237000I46000J96800D01*
G01Y1915900D01*
X4180100Y1859000D01*
X3151900D01*
G02X2944100I-103900J46000D01*
G01X1453400D01*
Y1269900D01*
X1346300Y1162800D01*
X451600D01*
Y2438500D01*
X520600Y2507500D01*
X843000D01*
G37*
G36*
G01X2158800Y2882700D02*
X2006200D01*
G02Y2959300I-101200J38300D01*
G01X2158800D01*
Y3001000D01*
G02X2184400Y3026600I25600J0D01*
G01X2311400D01*
G02X2337000Y3001000I0J-25600D01*
G01Y2841000D01*
G02X2311400Y2815400I-25600J0D01*
G01X2184400D01*
G02X2158800Y2841000I0J25600D01*
G01Y2882700D01*
G37*
G36*
G01X2667200Y3001000D02*
Y2959300D01*
X2946800D01*
G02X3149200I101200J-38300D01*
G01X4096700D01*
G02Y2882700I94300J-38300D01*
G01X3149200D01*
G02X2946800I-101200J38300D01*
G01X2667200D01*
Y2841000D01*
G02X2641600Y2815400I-25600J0D01*
G01X2514600D01*
G02X2489000Y2841000I0J25600D01*
G01Y3001000D01*
G02X2514600Y3026600I25600J0D01*
G01X2641600D01*
G02X2667200Y3001000I0J-25600D01*
G37*
G54D17*
X5124450Y3416300D03*
G54D16*
X6413500Y4381500D03*
X571500D03*
Y571500D03*
X6413500D03*
%LPD*%
G75*
G36*
G01X533400Y2476500D02*
X1358900D01*
X1422400Y2413000D01*
Y1951000D01*
X985800D01*
G03Y1859000I-96800J-46000D01*
G01X1422400D01*
Y1282700D01*
X1333500Y1193800D01*
X482600D01*
Y2425700D01*
X533400Y2476500D01*
G37*
G36*
G01X5232400Y3200400D02*
X5016500D01*
Y3632200D01*
X5232400D01*
Y3200400D01*
G37*
%LPC*%
G75*
G54D18*
X889000Y2159000D03*
%LPD*%
G75*
G54D10*
X571500Y571500D03*
Y4381500D03*
X6413500Y571500D03*
Y4381500D03*
G54D11*
X889000Y1905000D03*
Y2159000D03*
X4191000Y2667000D03*
Y2921000D03*
G54D12*
X889000D03*
X1905000D03*
X3048000Y1905000D03*
Y2921000D03*
G54D13*
X2578100D03*
X2247900D03*
G54D14*
G01X889000Y1905000D02*
X3048000D01*
G01X794800Y2159000D02*
X889000D01*
G01D02*
Y2921000D01*
G01Y2095500D02*
Y2159000D01*
G01D02*
X983200D01*
G01X3048000Y1905000D02*
X4161000D01*
X4191000Y1935000D01*
Y2667000D01*
G54D15*
G01X2578100Y2921000D02*
X3048000D01*
G01X2247900D02*
X1905000D01*
G01X3048000D02*
X4191000D01*
M02*
